# xmcd
# 
# Track frame offsets:
#     150
#     17246
#     33229
#     47201
#     62609
#     77557
#     93245
#     115682
#     129725
#     145437
#     159840
#     174358
#     190661
#     215135
#     229456
#     245447
#     258273
#     271558
#     285607
#     297350
#     317799
#     334471
# 
# Disc length: 4684
# 
# Revision: 1
# Processed by: cddbd v1.5.2PL0 Copyright (c) Steve Scherf et al.
# Submitted via: fre:ac v1.0.17
# 
DISCID=40124a16
DTITLE=Glenn Miller Orchestra - Legend! The Glenn Miller Orchestra
DYEAR=2015
DGENRE=Jazz
TTITLE0=Moonlight Serenade
TTITLE1=Anvil Chorus
TTITLE2=茶色の小瓶 -Little Brouwn Jug-
TTITLE3=Skylark
TTITLE4=真珠の首飾り -A String Of Pearls-
TTITLE5=Tuxedo Junction
TTITLE6=Chattanooga Choo Choo
TTITLE7=Perfidia
TTITLE8=American Patrol
TTITLE9=Pennsylvania 6-5000
TTITLE10=Rhapsody In Blue
TTITLE11=In The Mood
TTITLE12=At Last
TTITLE13=リンゴの木陰で -Don't Sit Under The Apple Tree (With Anyone Else But Me)-
TTITLE14=Sunrise Serenade
TTITLE15=Christmas Dreaming (A Little Early This Year)
TTITLE16=カラマズーの娘 -I've Got A Gal In Kalamazoo-
TTITLE17=Sun Valley Jump
TTITLE18=That's Sabotage (Live)
TTITLE19=Just Imagine (Live)
TTITLE20=King Porter Stomp (Live)
TTITLE21=Moonlight Serenade (Live)
EXTD=2015.10.07  VICP-65335
EXTT0=
EXTT1=
EXTT2=
EXTT3=
EXTT4=
EXTT5=
EXTT6=
EXTT7=
EXTT8=
EXTT9=
EXTT10=
EXTT11=
EXTT12=
EXTT13=
EXTT14=
EXTT15=
EXTT16=
EXTT17=
EXTT18=
EXTT19=
EXTT20=
EXTT21=
PLAYORDER=
